<svg width="50" height="50" viewBox="0 0 24 24" fill="none" xmlns="http://www.w3.org/2000/svg">
<path d="M21.5816 7.34667C21.4661 6.89005 21.2419 6.47432 20.9314 6.14115C20.6209 5.80798 20.235 5.56907 19.8125 5.44833C18.2534 5 12 5 12 5C12 5 5.74662 5 4.18674 5.44833C3.76418 5.56907 3.37833 5.80798 3.06785 6.14115C2.75736 6.47432 2.53314 6.89005 2.41764 7.34667C1.86079 10.7647 1.86079 14.262 2.41764 17.68C2.53437 18.1327 2.75948 18.544 3.07016 18.8721C3.38083 19.2002 3.76604 19.4335 4.18674 19.5483C5.74431 20 12 20 12 20C12 20 18.2534 20 19.8132 19.5517C20.234 19.4368 20.6192 19.2035 20.9298 18.8754C21.2405 18.5473 21.4656 18.136 21.5823 17.6833C22.1392 14.2653 22.1392 10.768 21.5823 7.35L21.5816 7.34667ZM9.95476 15.6875V9.34333L15.1851 12.515L9.95476 15.6875Z" fill="#FF0000"/>
</svg>
